<svg viewBox="0 0 480 360" xmlns="http://www.w3.org/2000/svg">
  <rect width="480" height="360" rx="28" fill="#eef6ff"/>
  <rect x="120" y="110" width="240" height="160" rx="18" fill="#ffffff" stroke="#d5e0ee" stroke-width="2"/>
  <g fill="#4a90e2">
    <path d="M240 150l8 20 20 8-20 8-8 20-8-20-20-8 20-8z"/>
  </g>
  <g fill="#94b9e2">
    <path d="M196 210l5 13 13 5-13 5-5 13-5-13-13-5 13-5z"/>
    <path d="M290 200l4 10 10 4-10 4-4 10-4-10-10-4 10-4z"/>
  </g>
  <circle cx="362" cy="96" r="30" fill="#f5a623"/>
  <path d="M350 96h24M362 84v24" stroke="#ffffff" stroke-width="5" stroke-linecap="round"/>
  <rect x="330" y="250" width="100" height="60" rx="14" fill="#274472"/>
  <path d="M340 310l10-12h14z" fill="#274472"/>
  <circle cx="356" cy="278" r="5" fill="#ffffff"/>
  <circle cx="380" cy="278" r="5" fill="#ffffff"/>
  <circle cx="404" cy="278" r="5" fill="#ffffff"/>
</svg>
