<svg viewBox="0 0 480 360" xmlns="http://www.w3.org/2000/svg">
  <rect width="480" height="360" rx="28" fill="#eef6ff"/>
  <circle cx="240" cy="170" r="120" fill="#ffffff"/>
  <rect x="130" y="120" width="220" height="150" rx="18" fill="#ffffff" stroke="#d5e0ee" stroke-width="2"/>
  <rect x="150" y="150" width="180" height="14" rx="7" fill="#d5e0ee"/>
  <rect x="150" y="178" width="140" height="14" rx="7" fill="#d5e0ee"/>
  <circle cx="240" cy="230" r="34" fill="#4a90e2"/>
  <path d="M240 212v18h18v8h-18v18h-8v-18h-18v-8h18v-18z" fill="#ffffff"/>
  <g stroke="#274472" stroke-width="6" stroke-linecap="round" fill="none">
    <path d="M170 100c0-14 10-24 24-24s24 10 24 24v18"/>
    <circle cx="194" cy="76" r="10" fill="#274472" stroke="none"/>
  </g>
  <circle cx="362" cy="96" r="30" fill="#f5a623"/>
  <path d="M350 96h24M362 84v24" stroke="#ffffff" stroke-width="5" stroke-linecap="round"/>
  <rect x="330" y="250" width="100" height="60" rx="14" fill="#274472"/>
  <path d="M340 310l10-12h14z" fill="#274472"/>
  <circle cx="356" cy="278" r="5" fill="#ffffff"/>
  <circle cx="380" cy="278" r="5" fill="#ffffff"/>
  <circle cx="404" cy="278" r="5" fill="#ffffff"/>
</svg>
