<svg viewBox="0 0 480 360" xmlns="http://www.w3.org/2000/svg">
  <rect width="480" height="360" rx="28" fill="#eef6ff"/>
  <rect x="120" y="110" width="240" height="160" rx="18" fill="#ffffff" stroke="#d5e0ee" stroke-width="2"/>
  <path d="M200 170c0-22 18-30 40-30s40 8 40 30c0 26-10 56-18 64-6 6-14 4-16-6l-6-26-6 26c-2 10-10 12-16 6-8-8-18-38-18-64z" fill="#4a90e2"/>
  <circle cx="362" cy="96" r="30" fill="#f5a623"/>
  <path d="M350 96h24M362 84v24" stroke="#ffffff" stroke-width="5" stroke-linecap="round"/>
  <rect x="330" y="250" width="100" height="60" rx="14" fill="#274472"/>
  <path d="M340 310l10-12h14z" fill="#274472"/>
  <circle cx="356" cy="278" r="5" fill="#ffffff"/>
  <circle cx="380" cy="278" r="5" fill="#ffffff"/>
  <circle cx="404" cy="278" r="5" fill="#ffffff"/>
</svg>
