<svg viewBox="0 0 480 360" xmlns="http://www.w3.org/2000/svg">
  <rect width="480" height="360" rx="28" fill="#eef6ff"/>
  <rect x="120" y="110" width="240" height="160" rx="18" fill="#ffffff" stroke="#d5e0ee" stroke-width="2"/>
  <path d="M240 150c-30 0-52 22-52 50 0 20 12 36 30 44l-4 22 26-18c30 2 52-20 52-48 0-28-22-50-52-50z" fill="#4a90e2"/>
  <path d="M214 196c4-14 16-22 26-14 8 6 4 18-6 22-10 4-22 6-20-8z" fill="#ffffff" opacity="0.85"/>
  <circle cx="362" cy="96" r="30" fill="#f5a623"/>
  <path d="M350 96h24M362 84v24" stroke="#ffffff" stroke-width="5" stroke-linecap="round"/>
  <rect x="330" y="250" width="100" height="60" rx="14" fill="#274472"/>
  <path d="M340 310l10-12h14z" fill="#274472"/>
  <circle cx="356" cy="278" r="5" fill="#ffffff"/>
  <circle cx="380" cy="278" r="5" fill="#ffffff"/>
  <circle cx="404" cy="278" r="5" fill="#ffffff"/>
</svg>
